<?xml version="1.0" ?><!DOCTYPE svg  PUBLIC '-//W3C//DTD SVG 1.1//EN'  'http://www.w3.org/Graphics/SVG/1.1/DTD/svg11.dtd'><svg enable-background="new 0 0 32 32" id="Layer_1" version="1.1" viewBox="0 0 32 32" xml:space="preserve" xmlns="http://www.w3.org/2000/svg" xmlns:xlink="http://www.w3.org/1999/xlink"><path d="M3.8,3.5v25c0,0.2,0,0.5,0.1,0.7C4.1,30.8,5.6,32,7.3,32h20c0.6,0,1-0.4,1-1v-5V6V1c0-0.6-0.4-1-1-1h-20  C5.3,0,3.8,1.6,3.8,3.5z M5.8,28.5V6.6C6.2,6.9,6.7,7,7.3,7v23c-0.7,0-1.3-0.5-1.5-1.2C5.8,28.7,5.8,28.6,5.8,28.5z M26.3,30h-17V7  h17v19V30z M26.3,5h-19C6.4,5,5.8,4.3,5.8,3.5S6.4,2,7.3,2h19V5z"/></svg>